<svg width="82" height="62" version="1.1" xmlns="http://www.w3.org/2000/svg"><path fill="rgb(14,61,122)" stroke="rgb(14,61,122)" stroke-width="1" opacity="0.9647058823529412" d="M 21 1 L 81 1 L 81 61 L 41 61 L 41 41 L 21 41 L 21 61 L 1 61 L 1 41 L 21 41 L 21 1 Z M 22 2 L 22 40 L 40 40 L 40 22 L 42 20 L 61 20 L 62 22 L 62 41 L 61 42 L 42 42 L 42 60 L 80 60 L 80 2 L 22 2 Z M 41 21 L 41 41 L 61 41 L 61 21 L 41 21 Z M 2 42 L 2 60 L 20 60 L 20 42 L 2 42 Z "></path><path fill="rgb(14,61,122)" stroke="rgb(14,61,122)" stroke-width="1" opacity="1" d="M 22 2 L 80 2 L 80 60 L 42 60 L 42 42 L 60.5 42 L 62 40.5 L 62 21.5 L 60.5 20 L 41.5 20 L 40 21.5 L 40 40 L 22 40 L 22 2 Z "></path><path fill="rgb(14,61,122)" stroke="rgb(14,61,122)" stroke-width="1" opacity="1" d="M 2 42 L 20 42 L 20 60 L 2 60 L 2 42 Z "></path><path fill="rgb(0,0,0)" stroke="rgb(0,0,0)" stroke-width="1" opacity="0" d="M 0 0 L 21 0.5 L 20 1.5 L 20 40 L 1.5 40 L 0.5 41 L 0 0 Z "></path><path fill="rgb(0,0,0)" stroke="rgb(0,0,0)" stroke-width="1" opacity="0" d="M 42 22 L 60 22 L 60 40 L 42 40 L 42 22 Z "></path><path fill="rgb(0,0,0)" stroke="rgb(0,0,0)" stroke-width="1" opacity="0" d="M 22 42 L 40 42 L 40 60.5 L 40.5 62 L 21 61.5 L 22 60.5 L 22 42 Z "></path><path fill="rgb(0,64,128)" stroke="rgb(0,64,128)" stroke-width="1" opacity="0.03137254901960784" d="M 21.5 0 L 80.5 0 L 82 1.5 L 82 60.5 L 80.5 62 L 41.5 62 L 40 60.5 L 40 42 L 22 42 L 22 60.5 L 20.5 62 L 1.5 62 L 0 60.5 L 0 41.5 L 1.5 40 L 20 40 L 20 1.5 L 21.5 0 Z M 21 1 L 21 41 L 41 41 L 41 21 L 61 21 L 61 41 L 41 41 L 41 61 L 81 61 L 81 1 L 21 1 Z M 42 22 L 42 40 L 60 40 L 60 22 L 42 22 Z M 1 41 L 1 61 L 21 61 L 21 41 L 1 41 Z "></path></svg>